<mxfile host="Electron" agent="Mozilla/5.0 (Windows NT 10.0; Win64; x64) AppleWebKit/537.36 (KHTML, like Gecko) draw.io/27.0.9 Chrome/134.0.6998.205 Electron/35.4.0 Safari/537.36" version="27.0.9">
  <diagram name="Page-1" id="kzNp_J0EYL3jMBg59ZUF">
    <mxGraphModel dx="1340" dy="1185" grid="1" gridSize="10" guides="1" tooltips="1" connect="1" arrows="1" fold="1" page="1" pageScale="1" pageWidth="850" pageHeight="1100" math="0" shadow="0">
      <root>
        <mxCell id="0" />
        <mxCell id="1" parent="0" />
        <mxCell id="7STD5QvkAaW2eduLXNgs-2" value="" style="whiteSpace=wrap;html=1;aspect=fixed;" vertex="1" parent="1">
          <mxGeometry x="5" width="1025" height="1025" as="geometry" />
        </mxCell>
        <mxCell id="7STD5QvkAaW2eduLXNgs-1" value="&lt;font style=&quot;color: rgb(0, 0, 0);&quot;&gt;Search bar (input and keyword will find gif)&lt;/font&gt;" style="rounded=1;whiteSpace=wrap;html=1;fillColor=#FFFFFF;fontColor=#000000;" vertex="1" parent="1">
          <mxGeometry x="237.5" y="220" width="560" height="60" as="geometry" />
        </mxCell>
        <mxCell id="7STD5QvkAaW2eduLXNgs-3" value="&lt;font style=&quot;color: rgb(0, 0, 0);&quot;&gt;Image Search (in cursive *Fancy*)&lt;/font&gt;" style="rounded=0;whiteSpace=wrap;html=1;strokeColor=#FFFFFF;fillColor=#FFFFFF;" vertex="1" parent="1">
          <mxGeometry x="262.5" y="90" width="510" height="100" as="geometry" />
        </mxCell>
        <mxCell id="7STD5QvkAaW2eduLXNgs-4" value="search button" style="rounded=1;whiteSpace=wrap;html=1;fillColor=#60a917;fontColor=#ffffff;strokeColor=#2D7600;" vertex="1" parent="1">
          <mxGeometry x="677.5" y="220" width="120" height="60" as="geometry" />
        </mxCell>
        <mxCell id="7STD5QvkAaW2eduLXNgs-5" value="search gif results" style="rounded=0;whiteSpace=wrap;html=1;" vertex="1" parent="1">
          <mxGeometry x="130" y="380" width="120" height="60" as="geometry" />
        </mxCell>
        <mxCell id="7STD5QvkAaW2eduLXNgs-7" value="search gif results" style="rounded=0;whiteSpace=wrap;html=1;" vertex="1" parent="1">
          <mxGeometry x="277.5" y="470" width="120" height="60" as="geometry" />
        </mxCell>
        <mxCell id="7STD5QvkAaW2eduLXNgs-8" value="search gif results" style="rounded=0;whiteSpace=wrap;html=1;movable=1;resizable=1;rotatable=1;deletable=1;editable=1;locked=0;connectable=1;" vertex="1" parent="1">
          <mxGeometry x="440" y="470" width="120" height="60" as="geometry" />
        </mxCell>
        <mxCell id="7STD5QvkAaW2eduLXNgs-9" value="search gif results" style="rounded=0;whiteSpace=wrap;html=1;movable=1;resizable=1;rotatable=1;deletable=1;editable=1;locked=0;connectable=1;" vertex="1" parent="1">
          <mxGeometry x="600" y="470" width="120" height="60" as="geometry" />
        </mxCell>
        <mxCell id="7STD5QvkAaW2eduLXNgs-10" value="search gif results" style="rounded=0;whiteSpace=wrap;html=1;movable=1;resizable=1;rotatable=1;deletable=1;editable=1;locked=0;connectable=1;" vertex="1" parent="1">
          <mxGeometry x="740" y="470" width="120" height="60" as="geometry" />
        </mxCell>
        <mxCell id="7STD5QvkAaW2eduLXNgs-11" value="search gif results" style="rounded=0;whiteSpace=wrap;html=1;movable=1;resizable=1;rotatable=1;deletable=1;editable=1;locked=0;connectable=1;" vertex="1" parent="1">
          <mxGeometry x="740" y="380" width="120" height="60" as="geometry" />
        </mxCell>
        <mxCell id="7STD5QvkAaW2eduLXNgs-12" value="search gif results" style="rounded=0;whiteSpace=wrap;html=1;movable=1;resizable=1;rotatable=1;deletable=1;editable=1;locked=0;connectable=1;" vertex="1" parent="1">
          <mxGeometry x="277.5" y="380" width="120" height="60" as="geometry" />
        </mxCell>
        <mxCell id="7STD5QvkAaW2eduLXNgs-13" value="search gif results" style="rounded=0;whiteSpace=wrap;html=1;movable=1;resizable=1;rotatable=1;deletable=1;editable=1;locked=0;connectable=1;" vertex="1" parent="1">
          <mxGeometry x="440" y="380" width="120" height="60" as="geometry" />
        </mxCell>
        <mxCell id="7STD5QvkAaW2eduLXNgs-14" value="search gif results" style="rounded=0;whiteSpace=wrap;html=1;movable=1;resizable=1;rotatable=1;deletable=1;editable=1;locked=0;connectable=1;" vertex="1" parent="1">
          <mxGeometry x="600" y="380" width="120" height="60" as="geometry" />
        </mxCell>
        <mxCell id="7STD5QvkAaW2eduLXNgs-16" value="search gif results" style="rounded=0;whiteSpace=wrap;html=1;" vertex="1" parent="1">
          <mxGeometry x="127.5" y="470" width="120" height="60" as="geometry" />
        </mxCell>
        <mxCell id="7STD5QvkAaW2eduLXNgs-17" value="search gif results" style="rounded=0;whiteSpace=wrap;html=1;" vertex="1" parent="1">
          <mxGeometry x="127.5" y="550" width="120" height="60" as="geometry" />
        </mxCell>
        <mxCell id="7STD5QvkAaW2eduLXNgs-18" value="search gif results" style="rounded=0;whiteSpace=wrap;html=1;" vertex="1" parent="1">
          <mxGeometry x="127.5" y="630" width="120" height="60" as="geometry" />
        </mxCell>
        <mxCell id="7STD5QvkAaW2eduLXNgs-19" value="search gif results" style="rounded=0;whiteSpace=wrap;html=1;" vertex="1" parent="1">
          <mxGeometry x="127.5" y="710" width="120" height="60" as="geometry" />
        </mxCell>
        <mxCell id="7STD5QvkAaW2eduLXNgs-20" value="search gif results" style="rounded=0;whiteSpace=wrap;html=1;" vertex="1" parent="1">
          <mxGeometry x="277.5" y="710" width="120" height="60" as="geometry" />
        </mxCell>
        <mxCell id="7STD5QvkAaW2eduLXNgs-21" value="search gif results" style="rounded=0;whiteSpace=wrap;html=1;" vertex="1" parent="1">
          <mxGeometry x="277.5" y="550" width="120" height="60" as="geometry" />
        </mxCell>
        <mxCell id="7STD5QvkAaW2eduLXNgs-22" value="search gif results" style="rounded=0;whiteSpace=wrap;html=1;" vertex="1" parent="1">
          <mxGeometry x="440" y="710" width="120" height="60" as="geometry" />
        </mxCell>
        <mxCell id="7STD5QvkAaW2eduLXNgs-23" value="search gif results" style="rounded=0;whiteSpace=wrap;html=1;" vertex="1" parent="1">
          <mxGeometry x="600" y="710" width="120" height="60" as="geometry" />
        </mxCell>
        <mxCell id="7STD5QvkAaW2eduLXNgs-24" value="search gif results" style="rounded=0;whiteSpace=wrap;html=1;" vertex="1" parent="1">
          <mxGeometry x="740" y="710" width="120" height="60" as="geometry" />
        </mxCell>
        <mxCell id="7STD5QvkAaW2eduLXNgs-25" value="search gif results" style="rounded=0;whiteSpace=wrap;html=1;" vertex="1" parent="1">
          <mxGeometry x="277.5" y="630" width="120" height="60" as="geometry" />
        </mxCell>
        <mxCell id="7STD5QvkAaW2eduLXNgs-26" value="search gif results" style="rounded=0;whiteSpace=wrap;html=1;" vertex="1" parent="1">
          <mxGeometry x="440" y="630" width="120" height="60" as="geometry" />
        </mxCell>
        <mxCell id="7STD5QvkAaW2eduLXNgs-27" value="search gif results" style="rounded=0;whiteSpace=wrap;html=1;" vertex="1" parent="1">
          <mxGeometry x="600" y="630" width="120" height="60" as="geometry" />
        </mxCell>
        <mxCell id="7STD5QvkAaW2eduLXNgs-28" value="search gif results" style="rounded=0;whiteSpace=wrap;html=1;" vertex="1" parent="1">
          <mxGeometry x="740" y="630" width="120" height="60" as="geometry" />
        </mxCell>
        <mxCell id="7STD5QvkAaW2eduLXNgs-29" value="search gif results" style="rounded=0;whiteSpace=wrap;html=1;" vertex="1" parent="1">
          <mxGeometry x="440" y="550" width="120" height="60" as="geometry" />
        </mxCell>
        <mxCell id="7STD5QvkAaW2eduLXNgs-30" value="search gif results" style="rounded=0;whiteSpace=wrap;html=1;" vertex="1" parent="1">
          <mxGeometry x="600" y="550" width="120" height="60" as="geometry" />
        </mxCell>
        <mxCell id="7STD5QvkAaW2eduLXNgs-31" value="search gif results" style="rounded=0;whiteSpace=wrap;html=1;" vertex="1" parent="1">
          <mxGeometry x="740" y="550" width="120" height="60" as="geometry" />
        </mxCell>
      </root>
    </mxGraphModel>
  </diagram>
</mxfile>
